<?xml version="1.0" encoding="UTF-8" standalone="no"?>
<svg
   xmlns:dc="http://purl.org/dc/elements/1.1/"
   xmlns:cc="http://creativecommons.org/ns#"
   xmlns:rdf="http://www.w3.org/1999/02/22-rdf-syntax-ns#"
   xmlns:svg="http://www.w3.org/2000/svg"
   xmlns="http://www.w3.org/2000/svg"
   xmlns:sodipodi="http://sodipodi.sourceforge.net/DTD/sodipodi-0.dtd"
   xmlns:inkscape="http://www.inkscape.org/namespaces/inkscape"
   width="32"
   height="32"
   version="1.1"
   id="svg1520"
   sodipodi:docname="audio.svg"
   inkscape:version="0.92.4 5da689c313, 2019-01-14">
  <metadata
     id="metadata1526">
    <rdf:RDF>
      <cc:Work
         rdf:about="">
        <dc:format>image/svg+xml</dc:format>
        <dc:type
           rdf:resource="http://purl.org/dc/dcmitype/StillImage" />
        <dc:title></dc:title>
      </cc:Work>
    </rdf:RDF>
  </metadata>
  <defs
     id="defs1524" />
  <sodipodi:namedview
     pagecolor="#ffffff"
     bordercolor="#666666"
     borderopacity="1"
     objecttolerance="10"
     gridtolerance="10"
     guidetolerance="10"
     inkscape:pageopacity="0"
     inkscape:pageshadow="2"
     inkscape:window-width="1920"
     inkscape:window-height="1021"
     id="namedview1522"
     showgrid="false"
     inkscape:zoom="7.375"
     inkscape:cx="-23.59322"
     inkscape:cy="16"
     inkscape:window-x="0"
     inkscape:window-y="0"
     inkscape:window-maximized="1"
     inkscape:current-layer="svg1520" />
  <g
     id="22-22-audio-volume-muted"
     transform="translate(-325.0004,451)">
    <path
       style="opacity:0.001"
       d="m 325.0004,-419 h 22 c 0,0 0,0 0,0 v 22 c 0,0 0,0 0,0 h -22 c 0,0 0,0 0,0 v -22 c 0,0 0,0 0,0 z"
       id="path1410" />
    <path
       style="opacity:0.3;fill:#dfdfdf"
       d="m 335.0004,-416 -5,5 h -3 v 6 h 3 l 5,5 z m 2,0 v 2 c 2.86838,0.84571 5,3.06286 5,6 0,2.93714 -2.13163,5.15429 -5,6 v 2 c 3.89455,-0.89143 7,-4.11429 7,-8 0,-3.88571 -3.10545,-7.10857 -7,-8 z m 0,4 v 8 c 0,0 3.0002,-1 3,-4 -2e-4,-3 -3,-4 -3,-4 z"
       id="path1412" />
  </g>
  <g
     id="22-22-audio-volume-low"
     transform="translate(-300.0004,451)">
    <path
       style="opacity:0.001"
       d="m 325.0004,-419 h 22 c 0,0 0,0 0,0 v 22 c 0,0 0,0 0,0 h -22 c 0,0 0,0 0,0 v -22 c 0,0 0,0 0,0 z"
       id="path1415" />
    <path
       id="path1417"
       d="m 335.0004,-416 -5,5 h -3 v 6 h 3 l 5,5 z"
       style="fill:#dfdfdf;opacity:1" />
    <path
       style="opacity:0.3;fill:#dfdfdf"
       d="m 337.0004,-416 v 2 c 2.86838,0.84571 5,3.06286 5,6 0,2.93714 -2.13163,5.15429 -5,6 v 2 c 3.89455,-0.89143 7,-4.11429 7,-8 0,-3.88571 -3.10545,-7.10857 -7,-8 z"
       id="path1419" />
    <path
       style="opacity:0.3;fill:#dfdfdf"
       d="m 337.0004,-412 v 8 c 0,0 3.0002,-1 3,-4 -2e-4,-3 -3,-4 -3,-4 z"
       id="path1421" />
  </g>
  <g
     id="22-22-audio-volume-medium"
     transform="translate(-275.0004,451)">
    <path
       style="opacity:0.001"
       d="m 325.0004,-419 h 22 c 0,0 0,0 0,0 v 22 c 0,0 0,0 0,0 h -22 c 0,0 0,0 0,0 v -22 c 0,0 0,0 0,0 z"
       id="path1424" />
    <path
       id="path1426"
       d="m 335.0004,-416 -5,5 h -3 v 6 h 3 l 5,5 z"
       style="fill:#dfdfdf;opacity:1" />
    <path
       style="opacity:0.3;fill:#dfdfdf"
       d="m 337.0004,-416 v 2 c 2.86838,0.84571 5,3.06286 5,6 0,2.93714 -2.13163,5.15429 -5,6 v 2 c 3.89455,-0.89143 7,-4.11429 7,-8 0,-3.88571 -3.10545,-7.10857 -7,-8 z"
       id="path1428" />
    <path
       id="path1430"
       d="m 337.0004,-412 v 8 c 0,0 3.0002,-1 3,-4 -2e-4,-3 -3,-4 -3,-4 z"
       style="fill:#dfdfdf;opacity:1" />
  </g>
  <g
     id="22-22-audio-volume-high"
     transform="translate(-250.0004,451)">
    <path
       style="opacity:0.001"
       d="m 325.0004,-419 h 22 c 0,0 0,0 0,0 v 22 c 0,0 0,0 0,0 h -22 c 0,0 0,0 0,0 v -22 c 0,0 0,0 0,0 z"
       id="path1433" />
    <path
       id="path1435"
       d="m 335.0004,-416 -5,5 h -3 v 6 h 3 l 5,5 z"
       style="fill:#dfdfdf;opacity:1" />
    <path
       id="path1437"
       d="m 337.0004,-416 v 2 c 2.86838,0.84571 5,3.06286 5,6 0,2.93714 -2.13163,5.15429 -5,6 v 2 c 3.89455,-0.89143 7,-4.11429 7,-8 0,-3.88571 -3.10545,-7.10857 -7,-8 z"
       style="fill:#dfdfdf;opacity:1" />
    <path
       id="path1439"
       d="m 337.0004,-412 v 8 c 0,0 3.0002,-1 3,-4 -2e-4,-3 -3,-4 -3,-4 z"
       style="fill:#dfdfdf;opacity:1" />
  </g>
  <g
     id="audio-volume-low"
     transform="translate(32,32)">
    <rect
       style="opacity:0.001"
       width="32"
       height="32"
       x="0"
       y="-32"
       id="rect1442" />
    <g
       transform="translate(1,-32)"
       id="g1454">
      <path
         id="path1444"
         d="M 14.999,2 7,10.002 H 1 v 12 H 7 L 14.999,30 Z"
         style="fill:#009f90;opacity:1" />
      <path
         id="path1446"
         d="m 18.999,2 v 3 c 4.64,1.48 8,5.86 8,11 0,5.14 -3.36,9.52 -8,11 v 3 c 6.3,-1.56 11,-7.2 11,-14 0,-6.8 -4.7,-12.44 -11,-14 z"
         style="opacity:0.2;fill:#009f90" />
      <path
         id="path1448"
         d="m 18.999,10 v 12 c 2.12,-1.16 3.582,-3.4 3.582,-6 0,-2.6 -1.442,-4.84 -3.582,-6 z"
         style="opacity:0.2;fill:#009f90" />
      <path
         style="opacity:0.2;fill:#dfdfdf"
         d="M 14.998,2 7,10.002 H 1 v 1 H 7 L 14.998,3 Z"
         id="path1450" />
      <path
         style="opacity:0.2"
         d="m 1,22.002 v 1 H 7 L 14.998,31 V 30 L 7,22.002 Z"
         id="path1452" />
    </g>
  </g>
  <g
     id="audio-volume-muted"
     transform="translate(0,32)">
    <rect
       style="opacity:0.001"
       width="32"
       height="32"
       x="0"
       y="-32"
       id="rect1457" />
    <g
       transform="translate(1,-32)"
       id="g1475">
      <path
         id="path1459"
         d="M 14.999,2 7,10.002 H 1 v 12 H 7 L 14.999,30 Z"
         style="fill:#009f90;opacity:1" />
      <path
         style="opacity:0.2;fill:#dfdfdf"
         d="M 14.998,2 7,10.002 H 1 v 1 H 7 L 14.998,3 Z"
         id="path1461" />
      <path
         style="opacity:0.2"
         d="m 1,22.002 v 1 H 7 L 14.998,31 V 30 L 7,22.002 Z"
         id="path1463" />
      <circle
         id="circle1465"
         r="7"
         cy="24"
         cx="18"
         style="fill:#db3c30;opacity:1" />
      <path
         style="opacity:0.2"
         d="M 24.977,24.459 A 7,7 0 0 1 18,31 7,7 0 0 1 11.023,24.541 7,7 0 0 0 11,25 a 7,7 0 0 0 7,7 7,7 0 0 0 7,-7 7,7 0 0 0 -0.02344,-0.54102 z"
         id="path1467" />
      <g
         id="g1473"
         transform="matrix(0.70711,-0.70711,0.70711,0.70711,-15.941,24)"
         style="fill:#dfdfdf;opacity:1">
        <rect
           id="rect1469"
           y="23"
           x="20"
           height="2"
           width="8"
           style="fill:#ffffff;opacity:1" />
        <rect
           id="rect1471"
           transform="rotate(90)"
           y="-25"
           x="20"
           height="2"
           width="8"
           style="fill:#ffffff;opacity:1" />
      </g>
    </g>
  </g>
  <g
     id="audio-volume-medium"
     transform="translate(64,32)">
    <rect
       style="opacity:0.001"
       width="32"
       height="32"
       x="0"
       y="-32"
       id="rect1478" />
    <g
       transform="translate(1,-32)"
       id="g1494">
      <path
         id="path1480"
         d="M 14.999,2 7,10.002 H 1 v 12 H 7 L 14.999,30 Z"
         style="fill:#009f90;opacity:1" />
      <path
         id="path1482"
         d="m 18.999,2 v 3 c 4.64,1.48 8,5.86 8,11 0,5.14 -3.36,9.52 -8,11 v 3 c 6.3,-1.56 11,-7.2 11,-14 0,-6.8 -4.7,-12.44 -11,-14 z"
         style="opacity:0.2;fill:#009f90" />
      <path
         id="path1484"
         d="m 18.999,10 v 12 c 2.12,-1.16 3.582,-3.4 3.582,-6 0,-2.6 -1.442,-4.84 -3.582,-6 z"
         style="fill:#009f90;opacity:1" />
      <path
         style="opacity:0.2;fill:#dfdfdf"
         d="M 14.998,2 7,10.002 H 1 v 1 H 7 L 14.998,3 Z"
         id="path1486" />
      <path
         style="opacity:0.2;fill:#dfdfdf"
         d="m 18.998,10 v 1 c 2,1.084 3.374,3.117 3.547,5.5 0.012,-0.167 0.035,-0.33 0.035,-0.5 0,-2.6 -1.442,-4.84 -3.582,-6 z"
         id="path1488" />
      <path
         style="opacity:0.2"
         d="m 1,22.002 v 1 H 7 L 14.998,31 V 30 L 7,22.002 Z"
         id="path1490" />
      <path
         style="opacity:0.2"
         d="m 22.545,16.5 c -0.17529,2.3834 -1.5653,4.4158 -3.5469,5.5 v 1 c 2.12,-1.16 3.582,-3.4 3.582,-6 0,-0.16981 -0.02306,-0.33346 -0.03516,-0.5 z"
         id="path1492" />
    </g>
  </g>
  <g
     id="audio-volume-high"
     transform="translate(96,32)">
    <rect
       style="opacity:0.001"
       width="32"
       height="32"
       x="0"
       y="-32"
       id="rect1497" />
    <g
       transform="translate(1,-32)"
       id="g1517">
      <path
         id="path1499"
         d="M 14.999,2 7,10.002 H 1 v 12 H 7 L 14.999,30 Z"
         style="fill:#009f90;opacity:1" />
      <path
         id="path1501"
         d="m 18.999,2 v 3 c 4.64,1.48 8,5.86 8,11 0,5.14 -3.36,9.52 -8,11 v 3 c 6.3,-1.56 11,-7.2 11,-14 0,-6.8 -4.7,-12.44 -11,-14 z"
         style="fill:#009f90;opacity:1" />
      <path
         id="path1503"
         d="m 18.999,10 v 12 c 2.12,-1.16 3.582,-3.4 3.582,-6 0,-2.6 -1.442,-4.84 -3.582,-6 z"
         style="fill:#009f90;opacity:1" />
      <path
         style="opacity:0.2;fill:#dfdfdf"
         d="M 14.998,2 7,10.002 H 1 v 1 H 7 L 14.998,3 Z"
         id="path1505" />
      <path
         style="opacity:0.2;fill:#dfdfdf"
         d="m 18.998,2 v 1 c 6.144,1.5213 10.753,6.9266 10.979,13.5 0.005,-0.167 0.021,-0.331 0.021,-0.5 0,-6.8 -4.7,-12.44 -11,-14 z m 7.981,14.5 c -0.211,4.922 -3.493,9.068 -7.981,10.5 v 1 c 4.64,-1.48 8,-5.86 8,-11 0,-0.168 -0.012,-0.334 -0.019,-0.5 z"
         id="path1507" />
      <path
         style="opacity:0.2;fill:#dfdfdf"
         d="m 18.998,10 v 1 c 2,1.084 3.374,3.117 3.547,5.5 0.012,-0.167 0.035,-0.33 0.035,-0.5 0,-2.6 -1.442,-4.84 -3.582,-6 z"
         id="path1509" />
      <path
         style="opacity:0.2"
         d="m 1,22.002 v 1 H 7 L 14.998,31 V 30 L 7,22.002 Z"
         id="path1511" />
      <path
         style="opacity:0.2"
         d="m 18.998,5 v 1 c 4.4882,1.4316 7.77,5.5785 7.9805,10.5 0.0071,-0.16646 0.01953,-0.33183 0.01953,-0.5 0,-5.14 -3.36,-9.52 -8,-11 z M 29.977,16.5 C 29.751,23.073 25.142,28.479 18.998,30 v 1 c 6.3,-1.56 11,-7.2 11,-14 0,-0.16868 -0.01575,-0.33279 -0.02148,-0.5 z"
         id="path1513" />
      <path
         style="opacity:0.2"
         d="m 22.545,16.5 c -0.17529,2.3834 -1.5653,4.4158 -3.5469,5.5 v 1 c 2.12,-1.16 3.582,-3.4 3.582,-6 0,-0.16981 -0.02306,-0.33346 -0.03516,-0.5 z"
         id="path1515" />
    </g>
  </g>
</svg>
