<svg xmlns="http://www.w3.org/2000/svg" xmlns:xlink="http://www.w3.org/1999/xlink" width="32" height="32" version="1.1">
 <defs>
  <linearGradient id="linearGradient4172-5">
   <stop style="stop-color:#00c9b6"/>
   <stop style="stop-color:#00fce4" offset="1"/>
  </linearGradient>
  <linearGradient id="linearGradient4342" x2="0" y1="29" y2="8" gradientUnits="userSpaceOnUse" xlink:href="#linearGradient4172-5"/>
 </defs>
 <g transform="matrix(1 0 0 1 -384.57143 -515.798)">
  <g transform="matrix(1 0 0 1 -0.000006 0)">
   <path style="fill:#009183;fill-rule:evenodd" d="m 386.57144,518.798 0,7 0,1 28,0 0,-6 -14.00001,0 -2,-2 z"/>
   <path style="fill-opacity:0.235294;fill-rule:evenodd" d="m 397.57143,523.798 -1.99999,1 -9,0 0,1 6.99999,0 3,0 z"/>
   <path style="fill:url(#linearGradient4342)" transform="matrix(1 0 0 1 384.57143 515.798)" d="m 13,8 -2,2 -9,0 -1,0 0,19 11,0 1,0 18,0 0,-21 -18,0 z"/>
   <path style="fill:#ffffff;fill-opacity:0.235294;fill-rule:evenodd" d="m 397.57143,523.798 -2,2 -10,0 0,1 11,0 z"/>
   <path style="fill:#ffffff;fill-opacity:0.235294;fill-rule:evenodd" d="m 398.57143,518.798 1,3 15.00001,0 0,-1 -14.00001,0 z"/>
   <rect style="fill-opacity:0.235294" width="30" height="1" x="385.57" y="543.8"/>
  </g>
  <path style="fill:#008276" d="m 400.57143,528.798 a 4,4 0 0 0 -4,4 4,4 0 0 0 0.006,0.17187 2.9999869,2.9999869 0 0 0 -2.00586,2.82813 2.9999869,2.9999869 0 0 0 3,3 l 5.5,0 a 3.5,3.5 0 0 0 3.5,-3.5 3.5,3.5 0 0 0 -2.06055,-3.1875 4,4 0 0 0 -3.93945,-3.3125 z m 0,1 a 3,3 0 0 1 3,3 3,3 0 0 1 -0.002,0.0508 2.5,2.5 0 0 1 2.00195,2.44922 2.5,2.5 0 0 1 -2.5,2.5 l -5.5,0 a 1.999994,2 0 0 1 -2,-2 1.999994,2 0 0 1 2,-2 1.999994,2 0 0 1 0.17773,0.008 3,3 0 0 1 -0.17773,-1.00781 3,3 0 0 1 3,-3 z"/>
 </g>
</svg>
