<svg xmlns="http://www.w3.org/2000/svg" xmlns:xlink="http://www.w3.org/1999/xlink" width="32" height="32" version="1.1">
 <defs>
  <linearGradient id="linearGradient4172-5">
   <stop style="stop-color:#00c9b6"/>
   <stop style="stop-color:#00fce4" offset="1"/>
  </linearGradient>
  <linearGradient id="linearGradient4342" x2="0" y1="29" y2="12" gradientTransform="matrix(1 0 0 1 384.57142 515.798)" gradientUnits="userSpaceOnUse" xlink:href="#linearGradient4172-5"/>
 </defs>
 <g transform="matrix(1 0 0 1 -384.57143 -515.798)">
  <path style="fill:#009183;fill-rule:evenodd" d="m 386.57143,518.798 0,13 0,1 28,0 0,-12 -14.00001,0 -2,-2 z"/>
  <path style="fill-opacity:0.235294;fill-rule:evenodd" d="m 397.57142,527.798 -1.99999,1 -9,0 0,1 6.99999,0 3,0 z"/>
  <path style="fill:url(#linearGradient4342)" d="m 397.57142,527.798 -2,2 -9,0 -1,0 0,15 11,0 1,0 18,0 0,-17 z"/>
  <path style="fill:#ffffff;fill-opacity:0.235294;fill-rule:evenodd" d="m 397.57142,527.798 -2,2 -10,0 0,1 11,0 z"/>
  <path style="fill:#ffffff;fill-opacity:0.235294;fill-rule:evenodd" d="m 398.57142,518.798 1,3 15.00001,0 0,-1 -14.00001,0 z"/>
  <rect style="fill-opacity:0.235294" width="30" height="1" x="385.57" y="543.8"/>
 </g>
</svg>
