<svg xmlns="http://www.w3.org/2000/svg" width="32" height="32">
 <linearGradient id="a" x2="0" y1="29" y2="8" gradientUnits="userSpaceOnUse">
  <stop offset="0" stop-color="#00c9b6"/>
  <stop offset="1" stop-color="#00fce4"/>
 </linearGradient>
 <path fill="#009183" fill-rule="evenodd" d="m2 3v8h28v-6h-14l-2-2z"/>
 <path fill-opacity=".235" fill-rule="evenodd" d="m13 8-2 1h-9v1h10z"/>
 <path fill="url(#a)" d="m13 8-2 2h-10v19h30v-21z"/>
 <g fill-opacity=".235">
  <path fill="#fff" fill-rule="evenodd" d="m13 8-2 2h-10v1h11zm1-5 1 3h15v-1h-14z"/>
  <path d="m1 28h30v1h-30z"/>
 </g>
 <g fill="#008276">
  <path d="m13 17v1h-1v1h1v1h1v-1h1v-1h-1v-1zm5.5-.1a.6.6 0 0 0 -.6.6.6.6 0 0 0 .6.6.6.6 0 0 0 .6-.6.6.6 0 0 0 -.6-.6zm-1 1a.6.6 0 0 0 -.6.6.6.6 0 0 0 .6.6.6.6 0 0 0 .6-.6.6.6 0 0 0 -.6-.6zm2 0a.6.6 0 0 0 -.6.6.6.6 0 0 0 .6.6.6.6 0 0 0 .6-.6.6.6 0 0 0 -.6-.6zm-1 1a.6.6 0 0 0 -.6.6.6.6 0 0 0 .6.6.6.6 0 0 0 .6-.6.6.6 0 0 0 -.6-.6z"/>
  <path d="m12 15a2 4 0 0 0 -2 4v2.5a1.5 1.5 0 0 0 2.56 1.06l.944-.943a1.5 1.5 0 0 0 .996.383 1.5 1.5 0 0 0 1.5-1.5 1.5 1.5 0 0 0 2.498 1.12l.941.94a1.5 1.5 0 0 0 2.561-1.06v-2.5a2 4 0 0 0 -2-4zm0 1h8a1 3 0 0 1 1 3v2.5a.5.5 0 0 1 -.854.354l-1.853-1.854h-.293v.5a.5.5 0 0 1 -1 0v-.5h-2v.5a.5.5 0 0 1 -1 0v-.5h-.293l-1.853 1.854a.5.5 0 0 1 -.854-.354v-2.5a1 3 0 0 1 1-3z"/>
 </g>
</svg>
