<svg xmlns="http://www.w3.org/2000/svg" xmlns:xlink="http://www.w3.org/1999/xlink" width="32" height="32" version="1.1">
 <defs>
  <linearGradient id="linearGradient4172-5">
   <stop style="stop-color:#00c9b6"/>
   <stop style="stop-color:#00fce4" offset="1"/>
  </linearGradient>
  <linearGradient id="linearGradient4342" x2="0" y1="29" y2="8" gradientUnits="userSpaceOnUse" xlink:href="#linearGradient4172-5"/>
 </defs>
 <g transform="matrix(1 0 0 1 -384.57143 -515.798)">
  <g transform="matrix(1 0 0 1 -0.000006 0)">
   <path style="fill:#009183;fill-rule:evenodd" d="m 386.57144,518.798 0,7 0,1 28,0 0,-6 -14.00001,0 -2,-2 z"/>
   <path style="fill-opacity:0.235294;fill-rule:evenodd" d="m 397.57143,523.798 -1.99999,1 -9,0 0,1 6.99999,0 3,0 z"/>
   <path style="fill:url(#linearGradient4342)" transform="matrix(1 0 0 1 384.57143 515.798)" d="m 13,8 -2,2 -9,0 -1,0 0,19 11,0 1,0 18,0 0,-21 -18,0 z"/>
   <path style="fill:#ffffff;fill-opacity:0.235294;fill-rule:evenodd" d="m 397.57143,523.798 -2,2 -10,0 0,1 11,0 z"/>
   <path style="fill:#ffffff;fill-opacity:0.235294;fill-rule:evenodd" d="m 398.57143,518.798 1,3 15.00001,0 0,-1 -14.00001,0 z"/>
   <rect style="fill-opacity:0.235294" width="30" height="1" x="385.57" y="543.8"/>
  </g>
  <path style="fill:#008276" transform="matrix(1 0 0 1 384.57143 515.798)" d="M 18 13 L 17 14 L 19 16 L 17 18 L 18 19 L 21 16 L 18 13 z M 14 14 A 1 1 0 0 0 13 15 A 1 1 0 0 0 14 16 A 1 1 0 0 0 15 15 A 1 1 0 0 0 14 14 z M 12 17 A 0.99999994 0.99999994 0 0 0 11 18 A 0.99999994 0.99999994 0 0 0 12 19 A 0.99999994 0.99999994 0 0 0 13 18 A 0.99999994 0.99999994 0 0 0 12 17 z M 14.550781 19.900391 A 1.5499995 1.5499995 0 0 0 13 21.449219 A 1.5499995 1.5499995 0 0 0 14.550781 23 A 1.5499995 1.5499995 0 0 0 16.099609 21.449219 A 1.5499995 1.5499995 0 0 0 14.550781 19.900391 z"/>
 </g>
</svg>
