<?xml version="1.0" encoding="UTF-8" standalone="no"?>
<svg
   xmlns:dc="http://purl.org/dc/elements/1.1/"
   xmlns:cc="http://creativecommons.org/ns#"
   xmlns:rdf="http://www.w3.org/1999/02/22-rdf-syntax-ns#"
   xmlns:svg="http://www.w3.org/2000/svg"
   xmlns="http://www.w3.org/2000/svg"
   xmlns:xlink="http://www.w3.org/1999/xlink"
   xmlns:sodipodi="http://sodipodi.sourceforge.net/DTD/sodipodi-0.dtd"
   xmlns:inkscape="http://www.inkscape.org/namespaces/inkscape"
   width="128"
   height="128"
   version="1"
   id="svg1073"
   sodipodi:docname="containment-controls.svg"
   inkscape:version="0.92.4 5da689c313, 2019-01-14">
  <metadata
     id="metadata1077">
    <rdf:RDF>
      <cc:Work
         rdf:about="">
        <dc:format>image/svg+xml</dc:format>
        <dc:type
           rdf:resource="http://purl.org/dc/dcmitype/StillImage" />
        <dc:title></dc:title>
      </cc:Work>
    </rdf:RDF>
  </metadata>
  <sodipodi:namedview
     pagecolor="#ffffff"
     bordercolor="#666666"
     borderopacity="1"
     objecttolerance="10"
     gridtolerance="10"
     guidetolerance="10"
     inkscape:pageopacity="0"
     inkscape:pageshadow="2"
     inkscape:window-width="1920"
     inkscape:window-height="1022"
     id="namedview1075"
     showgrid="false"
     inkscape:zoom="7.36"
     inkscape:cx="44.163043"
     inkscape:cy="42.26087"
     inkscape:window-x="0"
     inkscape:window-y="0"
     inkscape:window-maximized="1"
     inkscape:current-layer="svg1073" />
  <defs
     id="defs960">
    <linearGradient
       id="linearGradient4303">
      <stop
         id="stop943"
         offset="0"
         style="stop-color:#00626d;opacity:1" />
      <stop
         id="stop945"
         offset="1"
         style="stop-color:#009c8c;opacity:1" />
    </linearGradient>
    <linearGradient
       id="linearGradient4291">
      <stop
         id="stop948"
         offset="0"
         style="stop-color:#007584;opacity:1" />
      <stop
         id="stop950"
         offset="1"
         style="stop-color:#009c8c;opacity:1" />
    </linearGradient>
    <linearGradient
       id="linearGradient4297"
       x1="266"
       x2="266"
       y1="108"
       y2="112"
       gradientUnits="userSpaceOnUse"
       xlink:href="#linearGradient4291" />
    <linearGradient
       id="linearGradient4301"
       x1="115"
       x2="115"
       y1="103"
       y2="107"
       gradientUnits="userSpaceOnUse"
       xlink:href="#linearGradient4303" />
    <linearGradient
       id="linearGradient4315"
       x1="266"
       x2="266"
       y1="121"
       y2="118"
       gradientUnits="userSpaceOnUse"
       xlink:href="#linearGradient4291" />
    <linearGradient
       id="linearGradient4317"
       x1="101"
       x2="101"
       y1="118"
       y2="114"
       gradientUnits="userSpaceOnUse"
       xlink:href="#linearGradient4303" />
    <linearGradient
       id="linearGradient4325"
       x1="268"
       x2="268"
       y1="112"
       y2="108"
       gradientUnits="userSpaceOnUse"
       xlink:href="#linearGradient4303" />
    <linearGradient
       id="linearGradient4333"
       x1="91"
       x2="95"
       y1="80.5"
       y2="80.5"
       gradientUnits="userSpaceOnUse"
       xlink:href="#linearGradient4303" />
    <linearGradient
       id="linearGradient4341"
       x1="106"
       x2="102"
       y1="67"
       y2="67"
       gradientUnits="userSpaceOnUse"
       xlink:href="#linearGradient4303" />
    <linearGradient
       xlink:href="#linearGradient4291-43"
       gradientUnits="userSpaceOnUse"
       y2="112"
       y1="108"
       x2="266"
       x1="266"
       id="linearGradient4297-198" />
    <linearGradient
       id="linearGradient4291-43">
      <stop
         id="stop1095"
         offset="0"
         style="stop-color:#007584;opacity:1" />
      <stop
         id="stop1097"
         offset="1"
         style="stop-color:#009c8c;opacity:1" />
    </linearGradient>
    <linearGradient
       xlink:href="#linearGradient4303-848"
       gradientUnits="userSpaceOnUse"
       y2="107"
       y1="103"
       x2="115"
       x1="115"
       id="linearGradient4301-586" />
    <linearGradient
       id="linearGradient4303-848">
      <stop
         id="stop1101"
         offset="0"
         style="stop-color:#009f90;opacity:1;stop-opacity:1" />
      <stop
         id="stop1103"
         offset="1"
         style="stop-color:#009f90;opacity:1;stop-opacity:1" />
    </linearGradient>
    <linearGradient
       xlink:href="#linearGradient4291-476"
       gradientUnits="userSpaceOnUse"
       y2="118"
       y1="121"
       x2="266"
       x1="266"
       id="linearGradient4315-564" />
    <linearGradient
       id="linearGradient4291-476">
      <stop
         id="stop1107"
         offset="0"
         style="stop-color:#007584;opacity:1" />
      <stop
         id="stop1109"
         offset="1"
         style="stop-color:#009c8c;opacity:1" />
    </linearGradient>
    <linearGradient
       xlink:href="#linearGradient4303-588"
       gradientUnits="userSpaceOnUse"
       y2="114"
       y1="118"
       x2="101"
       x1="101"
       id="linearGradient4317-752" />
    <linearGradient
       id="linearGradient4303-588">
      <stop
         id="stop1113"
         offset="0"
         style="stop-color:#009f90;opacity:1;stop-opacity:1" />
      <stop
         id="stop1115"
         offset="1"
         style="stop-color:#009f90;opacity:1;stop-opacity:1" />
    </linearGradient>
    <linearGradient
       xlink:href="#linearGradient4303-892"
       gradientUnits="userSpaceOnUse"
       y2="67"
       y1="67"
       x2="102"
       x1="106"
       id="linearGradient4341-370" />
    <linearGradient
       id="linearGradient4303-892">
      <stop
         id="stop1119"
         offset="0"
         style="stop-color:#009f90;opacity:1;stop-opacity:1" />
      <stop
         id="stop1121"
         offset="1"
         style="stop-color:#009f90;opacity:1;stop-opacity:1" />
    </linearGradient>
    <linearGradient
       xlink:href="#linearGradient4303-767"
       gradientUnits="userSpaceOnUse"
       y2="108"
       y1="112"
       x2="268"
       x1="268"
       id="linearGradient4325-233" />
    <linearGradient
       id="linearGradient4303-767">
      <stop
         id="stop1125"
         offset="0"
         style="stop-color:#00626d;opacity:1" />
      <stop
         id="stop1127"
         offset="1"
         style="stop-color:#009c8c;opacity:1" />
    </linearGradient>
    <linearGradient
       xlink:href="#linearGradient4303-919"
       gradientUnits="userSpaceOnUse"
       y2="80.5"
       y1="80.5"
       x2="95"
       x1="91"
       id="linearGradient4333-636" />
    <linearGradient
       id="linearGradient4303-919">
      <stop
         id="stop1131"
         offset="0"
         style="stop-color:#009f90;opacity:1;stop-opacity:1" />
      <stop
         id="stop1133"
         offset="1"
         style="stop-color:#009f90;opacity:1;stop-opacity:1" />
    </linearGradient>
  </defs>
  <rect
     id="hint-stretch-borders"
     style="opacity:0.65;fill:#023812"
     width="5.221"
     height="5.403"
     x="-10"
     y="0" />
  <g
     id="north-center"
     transform="translate(-152,-4)">
    <path
       id="path963"
       d="m 264,112 0,5 5,0 0,-5 -5,0 z"
       style="fill:#009f90;opacity:1" />
  </g>
  <g
     transform="translate(-152,-5)"
     style="fill:url(#linearGradient4297-198);opacity:1"
     id="north-top">
    <path
       id="path966"
       d="m 112,103 0,1 0,1 0,2 5,0 0,-2 0,-1 0,-1 -5,0 z"
       transform="translate(152,5)"
       style="fill:url(#linearGradient4301-586);opacity:1" />
  </g>
  <g
     id="north-bottom"
     transform="translate(-152,-3)">
    <path
       id="path969"
       d="m 112,114 0,3 0,1 5,0 0,-1 0,-3 -5,0 z"
       transform="translate(152,3)"
       style="fill:#009f90;opacity:1" />
  </g>
  <g
     id="south-center"
     transform="translate(-165,-4)">
    <path
       id="path972"
       d="m 264,112 0,5 5,0 0,-5 -5,0 z"
       style="fill:#009f90;opacity:1" />
  </g>
  <g
     id="south-top"
     transform="translate(-165,-5)">
    <path
       id="path975"
       d="m 99,103 0,1 0,1 0,2 5,0 0,-2 0,-1 0,-1 -5,0 z"
       transform="translate(165,5)"
       style="fill:#009f90;opacity:1" />
  </g>
  <g
     transform="translate(-165,-3)"
     style="fill:url(#linearGradient4315-564);opacity:1"
     id="south-bottom">
    <path
       id="path978"
       d="m 99,114 0,3 0,1 5,0 0,-1 0,-3 -5,0 z"
       transform="translate(165,3)"
       style="fill:url(#linearGradient4317-752);opacity:1" />
  </g>
  <g
     id="east-center"
     transform="matrix(0,-1,1,0,-16,334)">
    <path
       id="path981"
       d="m 264,112 0,5 5,0 0,-5 -5,0 z"
       style="fill:#009f90;opacity:1" />
  </g>
  <g
     id="east-left"
     transform="matrix(0,-1,1,0,-17,334)">
    <path
       id="path984"
       d="m 91,65 0,5 1,0 3,0 0,-5 -3,0 -1,0 z"
       transform="matrix(0,1,-1,0,334,17)"
       style="fill:#009f90;opacity:1" />
  </g>
  <g
     id="east-right"
     transform="matrix(0,-1,1,0,-15,334)">
    <path
       id="path987"
       d="m 102,65 0,5 3,0 1,0 0,-5 -1,0 -3,0 z"
       transform="matrix(0,1,-1,0,334,15)"
       style="fill:url(#linearGradient4341-370);opacity:1" />
  </g>
  <g
     id="west-center"
     transform="matrix(0,-1,1,0,-16,347)">
    <path
       id="path990"
       d="m 264,112 0,5 5,0 0,-5 -5,0 z"
       style="fill:#009f90;opacity:1" />
  </g>
  <g
     transform="matrix(0,-1,1,0,-17,347)"
     style="fill:url(#linearGradient4325-233);opacity:1"
     id="west-left">
    <path
       id="path993"
       d="m 91,78 0,5 1,0 3,0 0,-5 -3,0 -1,0 z"
       transform="matrix(0,1,-1,0,347,17)"
       style="fill:url(#linearGradient4333-636);opacity:1" />
  </g>
  <g
     id="west-right"
     transform="matrix(0,-1,1,0,-15,347)">
    <path
       id="path996"
       d="m 102,78 0,5 3,0 1,0 0,-5 -1,0 -3,0 z"
       transform="matrix(0,1,-1,0,347,15)"
       style="fill:#009f90;opacity:1" />
  </g>
  <g
     id="vertical-centerindicator"
     transform="translate(1,15)">
    <rect
       style="opacity:0.2"
       width="42"
       height="1"
       x="11"
       y="32"
       id="rect999" />
    <rect
       id="rect1001"
       y="33"
       x="11"
       height="1"
       width="42"
       style="fill:#009f90;opacity:1" />
    <rect
       id="rect1003"
       y="31"
       x="11"
       height="1"
       width="42"
       style="fill:#009f90;opacity:1" />
  </g>
  <g
     id="horizontal-centerindicator"
     transform="translate(-4,17)">
    <rect
       style="opacity:0.2"
       width="42"
       height="1"
       x="-31"
       y="8"
       transform="matrix(0,-1,1,0,0,0)"
       id="rect1006" />
    <rect
       id="rect1008"
       transform="matrix(0,-1,1,0,0,0)"
       y="9"
       x="-31"
       height="1"
       width="42"
       style="fill:#009f90;opacity:1" />
    <rect
       id="rect1010"
       transform="matrix(0,-1,1,0,0,0)"
       y="7"
       x="-31"
       height="1"
       width="42"
       style="fill:#009f90;opacity:1" />
  </g>
  <g
     transform="translate(5.0312,68.003199)"
     style="enable-background:new;opacity:1"
     id="west-minslider">
    <g
       id="g1015"
       transform="translate(-405,100)">
      <path
         id="path1013"
         d="m 419,-89.222 -1.375,1.4062 -3.6562,-3.6562 0.0312,7.4688 -2,0 -0.0312,-7.4688 -3.625,3.6562 -1.375,-1.4062 6.0312,-6 6,6 z m -4,-8.7812 c 0,1.1046 -0.89543,2 -2,2 -1.10457,0 -2,-0.89543 -2,-2 0,-1.10457 0.89543,-2 2,-2 1.10457,0 2,0.89543 2,2 z"
         style="fill:#ffffff;opacity:1" />
    </g>
  </g>
  <g
     transform="translate(37,108.0004)"
     style="enable-background:new;opacity:1"
     id="north-offsetslider">
    <g
       id="g1020"
       transform="translate(-385,98.003)">
      <path
         id="path1018"
         d="m 387,-90.215 1.3858,1.3851 3.6348,-3.6349 -0.0211,8.4614 2,0 0.0211,-8.4614 3.6344,3.6349 1.3851,-1.3851 -6.0406,-6.0009 z"
         style="fill:#ffffff;opacity:1" />
    </g>
  </g>
  <g
     transform="translate(6.9988,89.968849)"
     style="enable-background:new;opacity:1"
     id="north-maxslider">
    <g
       id="g1025"
       transform="translate(-325,99.003)">
      <path
         id="path1023"
         d="m 330.22,-97.003 -1.4062,1.375 3.6562,3.6562 -7.4688,-0.03125 0,2 7.4688,0.0312 -3.6562,3.625 1.4062,1.375 6,-6.0312 -6,-6 z m 8.7812,4 c -1.1046,0 -2,0.89543 -2,2 0,1.10457 0.89543,2 2,2 1.10457,0 2,-0.89543 2,-2 0,-1.10457 -0.89543,-2 -2,-2 z"
         style="fill:#ffffff;opacity:1" />
    </g>
  </g>
  <g
     transform="translate(5.0016,107.9598)"
     style="enable-background:new;opacity:1"
     id="east-offsetslider">
    <g
       id="g1030"
       transform="translate(-305,99.003)">
      <path
         id="path1028"
         d="m 313.21,-97.003 -1.3851,1.3859 3.6349,3.6348 -8.4614,-0.0211 0,2 8.4614,0.0211 -3.6349,3.6344 1.3851,1.3851 6.0009,-6.0406 z"
         style="fill:#ffffff;opacity:1" />
    </g>
  </g>
  <g
     transform="translate(22.0312,68.003199)"
     style="enable-background:new;opacity:1"
     id="east-minslider">
    <g
       id="g1035"
       transform="translate(-405,100)">
      <path
         id="path1033"
         d="m 419,-89.222 -1.375,1.4062 -3.6562,-3.6562 0.0312,7.4688 -2,0 -0.0312,-7.4688 -3.625,3.6562 -1.375,-1.4062 6.0312,-6 6,6 z m -4,-8.7812 c 0,1.1046 -0.89543,2 -2,2 -1.10457,0 -2,-0.89543 -2,-2 0,-1.10457 0.89543,-2 2,-2 1.10457,0 2,0.89543 2,2 z"
         style="fill:#ffffff;opacity:1" />
    </g>
  </g>
  <g
     transform="matrix(1,0,0,-1,38.0312,83.996799)"
     style="enable-background:new;opacity:1"
     id="west-maxslider">
    <g
       id="g1040"
       transform="translate(-405,100)">
      <path
         id="path1038"
         d="m 419,-89.222 -1.375,1.4062 -3.6562,-3.6562 0.0312,7.4688 -2,0 -0.0312,-7.4688 -3.625,3.6562 -1.375,-1.4062 6.0312,-6 6,6 z m -4,-8.7812 c 0,1.1046 -0.89543,2 -2,2 -1.10457,0 -2,-0.89543 -2,-2 0,-1.10457 0.89543,-2 2,-2 1.10457,0 2,0.89543 2,2 z"
         style="fill:#ffffff;opacity:1" />
    </g>
  </g>
  <g
     transform="matrix(1,0,0,-1,55.0312,83.996799)"
     style="enable-background:new;opacity:1"
     id="east-maxslider">
    <g
       id="g1045"
       transform="translate(-405,100)">
      <path
         id="path1043"
         d="m 419,-89.222 -1.375,1.4062 -3.6562,-3.6562 0.0312,7.4688 -2,0 -0.0312,-7.4688 -3.625,3.6562 -1.375,-1.4062 6.0312,-6 6,6 z m -4,-8.7812 c 0,1.1046 -0.89543,2 -2,2 -1.10457,0 -2,-0.89543 -2,-2 0,-1.10457 0.89543,-2 2,-2 1.10457,0 2,0.89543 2,2 z"
         style="fill:#ffffff;opacity:1" />
    </g>
  </g>
  <g
     transform="translate(25.9988,89.968849)"
     style="enable-background:new;opacity:1"
     id="south-maxslider">
    <g
       id="g1050"
       transform="translate(-325,99.003)">
      <path
         id="path1048"
         d="m 330.22,-97.003 -1.4062,1.375 3.6562,3.6562 -7.4688,-0.03125 0,2 7.4688,0.0312 -3.6562,3.625 1.4062,1.375 6,-6.0312 -6,-6 z m 8.7812,4 c -1.1046,0 -2,0.89543 -2,2 0,1.10457 0.89543,2 2,2 1.10457,0 2,-0.89543 2,-2 0,-1.10457 -0.89543,-2 -2,-2 z"
         style="fill:#ffffff;opacity:1" />
    </g>
  </g>
  <g
     transform="matrix(-1,0,0,1,61.0012,89.968849)"
     style="enable-background:new;opacity:1"
     id="north-minslider">
    <g
       id="g1055"
       transform="translate(-325,99.003)">
      <path
         id="path1053"
         d="m 330.22,-97.003 -1.4062,1.375 3.6562,3.6562 -7.4688,-0.03125 0,2 7.4688,0.0312 -3.6562,3.625 1.4062,1.375 6,-6.0312 -6,-6 z m 8.7812,4 c -1.1046,0 -2,0.89543 -2,2 0,1.10457 0.89543,2 2,2 1.10457,0 2,-0.89543 2,-2 0,-1.10457 -0.89543,-2 -2,-2 z"
         style="fill:#ffffff;opacity:1" />
    </g>
  </g>
  <g
     transform="matrix(-1,0,0,1,80.0012,89.968849)"
     style="enable-background:new;opacity:1"
     id="south-minslider">
    <g
       id="g1060"
       transform="translate(-325,99.003)">
      <path
         id="path1058"
         d="m 330.22,-97.003 -1.4062,1.375 3.6562,3.6562 -7.4688,-0.03125 0,2 7.4688,0.0312 -3.6562,3.625 1.4062,1.375 6,-6.0312 -6,-6 z m 8.7812,4 c -1.1046,0 -2,0.89543 -2,2 0,1.10457 0.89543,2 2,2 1.10457,0 2,-0.89543 2,-2 0,-1.10457 -0.89543,-2 -2,-2 z"
         style="fill:#ffffff;opacity:1" />
    </g>
  </g>
  <g
     transform="matrix(-1,0,0,1,37.2109,107.9598)"
     style="enable-background:new;opacity:1"
     id="west-offsetslider">
    <g
       id="g1065"
       transform="translate(-305,99.003)">
      <path
         id="path1063"
         d="m 313.21,-97.003 -1.3851,1.3859 3.6349,3.6348 -8.4614,-0.0211 0,2 8.4614,0.0211 -3.6349,3.6344 1.3851,1.3851 6.0009,-6.0406 z"
         style="fill:#ffffff;opacity:1" />
    </g>
  </g>
  <g
     transform="matrix(1,0,0,-1,52,123.7871)"
     style="enable-background:new;opacity:1"
     id="south-offsetslider">
    <g
       id="g1070"
       transform="translate(-385,98.003)">
      <path
         id="path1068"
         d="m 387,-90.215 1.3858,1.3851 3.6348,-3.6349 -0.0211,8.4614 2,0 0.0211,-8.4614 3.6344,3.6349 1.3851,-1.3851 -6.0406,-6.0009 z"
         style="fill:#ffffff;opacity:1" />
    </g>
  </g>
</svg>
