<svg xmlns="http://www.w3.org/2000/svg" xmlns:xlink="http://www.w3.org/1999/xlink" width="64" height="64" version="1.1">
 <defs>
  <linearGradient id="linearGradient4178" x2="0" y1="541.798" y2="499.784" gradientTransform="matrix(1 0 0 0.99967455 0 0.17645)" gradientUnits="userSpaceOnUse" xlink:href="#linearGradient4172-5"/>
  <linearGradient id="linearGradient4172-5">
   <stop style="stop-color:#00c8b5"/>
   <stop style="stop-color:#00fbe3" offset="1"/>
  </linearGradient>
 </defs>
 <g transform="matrix(1 0 0 1 -384.57143 -483.798)">
  <g transform="matrix(1 0 0 1 0 0.000005)">
   <path style="fill:#009082" d="m 388.57143,489.79812 0,5 0,22 c 0,0.55373 0.446,1 1,1 l 54,0 c 0.55399,0 1,-0.44627 1,-1 l 0,-21.99023 c 0,-0.003 -0.002,-0.006 -0.002,-0.01 l 0.002,0 0,-1 -28,0 -4,-4 -24,0 z"/>
   <path style="fill:url(#linearGradient4178)" d="m 410.57143,499.79812 -4,4 -19,0 0,1 0.002,0 c -5e-5,0.004 -0.002,0.008 -0.002,0.0117 l 0,35.98828 0,1 1,0 56,0 1,0 0,-1 0,-35.98828 0,-0.0117 0,-5 z"/>
   <path style="fill:#ffffff;fill-opacity:0.235294;fill-rule:evenodd" d="m 387.57144,503.79812 0,1 19.99999,0 3,-5 -4,4 z"/>
   <path style="fill-opacity:0.235294;fill-rule:evenodd" d="m 388.57143,502.79812 0,1 18,0 4,-4 -6,3 z"/>
   <path style="fill-opacity:0.235294" d="m 387.57143,540.7981 0,1 1,0 56,0 1,0 0,-1 -1,0 -56,0 -1,0 z"/>
   <path style="fill:#ffffff;fill-opacity:0.235294;fill-rule:evenodd" transform="matrix(1 0 0 1 384.57143 483.798)" d="m 28,6 3,5 2,0 27,0 0,-1 -27,0 -1,0 z"/>
  </g>
  <path style="fill:#008175;fill-rule:evenodd" transform="matrix(1 0 0 1 384.57143 483.798)" d="M 38.900391 27 A 2 2 0 0 0 36.900391 29 A 2 2 0 0 0 38.900391 31 A 2 2 0 0 0 40.900391 29 A 2 2 0 0 0 38.900391 27 z M 35.400391 30 A 0.5 0.5 0 0 0 34.900391 30.5 A 0.5 0.5 0 0 0 35.400391 31 A 0.5 0.5 0 0 0 35.900391 30.5 A 0.5 0.5 0 0 0 35.400391 30 z M 32.400391 32 A 0.5 0.5 0 0 0 31.900391 32.5 A 0.5 0.5 0 0 0 32.400391 33 A 0.5 0.5 0 0 0 32.900391 32.5 A 0.5 0.5 0 0 0 32.400391 32 z M 29.400391 34 A 0.5 0.5 0 0 0 28.900391 34.5 A 0.5 0.5 0 0 0 29.400391 35 A 0.5 0.5 0 0 0 29.900391 34.5 A 0.5 0.5 0 0 0 29.400391 34 z M 24.900391 35 A 2 2 0 0 0 22.900391 37 A 2 2 0 0 0 24.900391 39 A 2 2 0 0 0 26.900391 37 A 2 2 0 0 0 24.900391 35 z M 29.400391 39 A 0.5 0.5 0 0 0 28.900391 39.5 A 0.5 0.5 0 0 0 29.400391 40 A 0.5 0.5 0 0 0 29.900391 39.5 A 0.5 0.5 0 0 0 29.400391 39 z M 32.400391 41 A 0.5 0.5 0 0 0 31.900391 41.5 A 0.5 0.5 0 0 0 32.400391 42 A 0.5 0.5 0 0 0 32.900391 41.5 A 0.5 0.5 0 0 0 32.400391 41 z M 35.400391 43 A 0.5 0.5 0 0 0 34.900391 43.5 A 0.5 0.5 0 0 0 35.400391 44 A 0.5 0.5 0 0 0 35.900391 43.5 A 0.5 0.5 0 0 0 35.400391 43 z M 38.900391 43 A 2 2 0 0 0 36.900391 45 A 2 2 0 0 0 38.900391 47 A 2 2 0 0 0 40.900391 45 A 2 2 0 0 0 38.900391 43 z"/>
 </g>
</svg>
