<svg xmlns="http://www.w3.org/2000/svg" xmlns:xlink="http://www.w3.org/1999/xlink" width="64" height="64" version="1.1">
 <defs>
  <linearGradient id="linearGradient4703" x1="418.17" x2="384.571" y1="503.079" y2="531.458" gradientTransform="matrix(0.91666628 0 0 0.91666628 -340.52366 -455.81464)" gradientUnits="userSpaceOnUse" xlink:href="#linearGradient4697"/>
  <linearGradient id="linearGradient4697">
   <stop style="stop-color:#1abc9c"/>
   <stop style="stop-color:#2980b9" offset="1"/>
  </linearGradient>
  <linearGradient id="linearGradient4532" x1="404.045" x2="430.736" y1="521.633" y2="528.35" gradientTransform="matrix(0.91666628 0 0 0.91666628 -340.52366 -455.81464)" gradientUnits="userSpaceOnUse" xlink:href="#linearGradient4526"/>
  <linearGradient id="linearGradient4526">
   <stop style="stop-color:#cc4a5e"/>
   <stop style="stop-color:#aa478a" offset="1"/>
  </linearGradient>
  <linearGradient id="linearGradient4474" x1="398.092" x2="394.003" y1="542.224" y2="524.9" gradientTransform="matrix(0.91666628 0 0 0.91666628 -340.52366 -455.81464)" gradientUnits="userSpaceOnUse" xlink:href="#linearGradient4468"/>
  <linearGradient id="linearGradient4468">
   <stop style="stop-color:#334545"/>
   <stop style="stop-color:#536161" offset="1"/>
  </linearGradient>
  <linearGradient id="linearGradient4500" x1="431.571" x2="439.571" y1="568.798" y2="562.798" gradientTransform="matrix(-1 0 0 1 839.14285 -40.00001)" gradientUnits="userSpaceOnUse" xlink:href="#linearGradient4468"/>
  <linearGradient id="linearGradient4498" x1="406.537" x2="423.32" y1="581.87" y2="572.678" gradientTransform="matrix(-0.91666628 0 0 0.91666628 428.69029 -492.4813)" gradientUnits="userSpaceOnUse" xlink:href="#linearGradient4468"/>
  <linearGradient id="linearGradient4496" x1="423.054" x2="431.225" y1="572.334" y2="566.766" gradientTransform="matrix(-0.91666628 0 0 0.91666628 448.69029 -492.4813)" gradientUnits="userSpaceOnUse" xlink:href="#linearGradient4468"/>
  <linearGradient id="linearGradient4492" x1="431.313" x2="440.632" y1="577.102" y2="571.445" gradientTransform="matrix(-0.91666628 0 0 0.91666628 428.69029 -492.4813)" gradientUnits="userSpaceOnUse" xlink:href="#linearGradient4468"/>
  <linearGradient id="linearGradient4490" x1="430.567" x2="423.75" y1="577.362" y2="591.328" gradientTransform="matrix(-0.91666628 0 0 0.91666628 428.69029 -492.4813)" gradientUnits="userSpaceOnUse" xlink:href="#linearGradient4468"/>
 </defs>
 <g transform="matrix(1 0 0 1 -384.57143 -483.798)">
  <g transform="matrix(1.2083328 0 0 1.5888879 -77.11883 -310.68057)">
   <path style="fill:url(#linearGradient4703)" transform="matrix(1.0909096 0 0 1.0909096 371.48052 497.25255)" d="M 12,6 12,36 56,36 56,6 12,6 Z"/>
   <path style="fill:url(#linearGradient4532)" transform="matrix(1.0909096 0 0 1.0909096 371.48052 497.25255)" d="M 56,6 25.71875,23.482422 47.400391,36 56,36 56,6 Z"/>
   <path style="fill:url(#linearGradient4474)" transform="matrix(1.0909096 0 0 1.0909096 371.48052 497.25255)" d="M 25.75,23.416016 12,31.355469 12,36 47.605469,36 25.75,23.416016 Z"/>
   <path style="fill:url(#linearGradient4500)" d="m 407.82995,527.56606 -8.25852,-4.76806 0,9.53611 z"/>
   <path style="fill:url(#linearGradient4498)" transform="matrix(1.0909096 0 0 1.0909096 371.48052 497.25255)" d="m 40.890625,32.15625 0,3.84375 6.65625,0 -6.65625,-3.84375 z"/>
   <path style="fill:url(#linearGradient4496)" transform="matrix(1.0909096 0 0 1.0909096 349.66233 497.25255)" d="m 53.320312,27.787109 0,8.212891 0.916016,0 6.654297,-3.841797 -7.570313,-4.371094 z"/>
   <path style="fill:url(#linearGradient4492)" transform="matrix(1.0909096 0 0 1.0909096 371.48052 497.25255)" d="M 25.75,32.158203 25.75,36 32.404297,36 25.75,32.158203 Z"/>
   <path style="fill:url(#linearGradient4490)" transform="matrix(1.0909096 0 0 1.0909096 371.48052 497.25255)" d="M 40.890625,32.15625 34.234375,36 l 6.65625,0 0,-3.84375 z"/>
   <path style="fill:#aa478a" d="m 399.53737,522.87024 33.03408,-19.07223 -2e-5,9.31712 z"/>
  </g>
  <g>
   <path style="fill:#ffffff;fill-opacity:0.784314" d="m 387.57143,537.798 0,3.2 0,0.8 1,0 56,0 1,0 0,-0.8 0,-3.2 -58,0 z"/>
   <g transform="matrix(0.64829823 0 0 0.64829823 155.63174 190.06072)">
    <path d="m 434.23853,537.83412 c -0.15893,0.11003 -0.36677,0.22414 -0.54201,0.30157 l 0.0734,0.28934 c 0.14264,-0.0448 0.27305,-0.12225 0.43198,-0.22414 l 0,2.60819 0.35455,0 0,-2.97496 -0.31787,0 z"/>
    <path d="m 435.20119,538.03381 0.11819,0.29749 c 0.16708,-0.17116 0.41568,-0.24452 0.66427,-0.24452 0.33825,0 0.52571,0.18747 0.52571,0.51757 l 0,0.0204 c -0.004,0.2323 -0.15486,0.46051 -0.38715,0.71726 l -1.02697,1.14108 0.0448,0.32602 1.74016,0 0.0245,-0.30565 -1.38153,0 0.83951,-0.89656 c 0.32603,-0.35048 0.52572,-0.63575 0.52979,-1.01067 l 0,-0.0122 c 0,-0.48904 -0.34232,-0.81098 -0.88434,-0.81098 -0.38715,0 -0.63982,0.10595 -0.80691,0.26082 z"/>
    <path d="m 437.42599,540.85799 0.4116,0 0,-0.46459 -0.4116,0 0,0.46459 z m 0,-1.82574 0.4116,0 0,-0.46051 -0.4116,0 0,0.46051 z"/>
    <path d="m 439.75394,539.98995 c 0,0.3627 -0.2649,0.56239 -0.65613,0.56239 -0.30157,0 -0.50941,-0.0978 -0.6602,-0.21599 l -0.1141,0.28934 c 0.11003,0.10596 0.39122,0.22822 0.77838,0.22822 0.57869,0 1.00252,-0.3301 1.00252,-0.85989 0,-0.41975 -0.23229,-0.68872 -0.59499,-0.77023 0.32195,-0.0978 0.52164,-0.3301 0.52164,-0.71317 0,-0.47681 -0.41161,-0.73763 -0.85174,-0.73763 -0.41161,0 -0.6765,0.0897 -0.85581,0.22821 l 0.1141,0.28935 c 0.15894,-0.12634 0.39123,-0.21192 0.66428,-0.21192 0.35047,0 0.54609,0.14671 0.54609,0.47681 0,0.46866 -0.43198,0.52164 -0.88842,0.52164 l 0,0.29342 c 0.55424,0 0.99438,0.0856 0.99438,0.61945 z"/>
    <path d="m 441.86538,538.2824 0,1.49971 -0.99437,0 0.99437,-1.49971 z m 0.67243,1.78905 0.0285,-0.28934 -0.36678,0 0,-1.94799 -0.37085,0 -1.30817,1.93169 0,0.30564 1.34484,0 0,0.73763 0.33418,0 0,-0.73763 0.33825,0 z"/>
   </g>
   <path d="m 391.07143,538.69839 a 0.16666666,0.16666666 0 0 0 -0.16667,0.16667 0.16666666,0.16666666 0 0 0 0.16667,0.16667 0.16666666,0.16666666 0 0 0 0.16666,-0.16667 0.16666666,0.16666666 0 0 0 -0.16666,-0.16667 z m 0.83333,0 -0.32292,0.26042 0.43229,0.53646 -0.40625,0.40625 0.29688,0.29687 0.66667,-0.66667 -0.66667,-0.83333 z m -1.08333,0.66667 a 0.25,0.25 0 0 0 -0.25,0.25 0.25,0.25 0 0 0 0.25,0.25 0.25,0.25 0 0 0 0.25,-0.25 0.25,0.25 0 0 0 -0.25,-0.25 z m 0.5,0.83333 a 0.25,0.25 0 0 0 -0.25,0.25 0.25,0.25 0 0 0 0.25,0.25 0.25,0.25 0 0 0 0.25,-0.25 0.25,0.25 0 0 0 -0.25,-0.25 z"/>
  </g>
 </g>
</svg>
