<svg xmlns="http://www.w3.org/2000/svg" width="64" height="64">
 <linearGradient id="a" x1="3" x2="3" y1="58" y2="16" gradientUnits="userSpaceOnUse">
  <stop offset="0" stop-color="#00c9b6"/>
  <stop offset="1" stop-color="#00fce4"/>
 </linearGradient>
 <path fill="#009183" d="M4 6v27c0 .554.446 1 1 1h54c.554 0 1-.446 1-1V11.01l-.002-.01H60v-1H32l-4-4z"/>
 <path fill="url(#a)" d="M3 20v38h58V16H26l-4 4z"/>
 <g fill-opacity=".235">
  <path fill="#fff" d="M3 20v1h20l3-5-4 4zM28 6l3 5h29v-1H32z"/>
  <path d="M4 19v1h18l4-4-6 3zM3 57v1h58v-1z"/>
 </g>
 <path fill="#008276" d="M34 27h-2L22 47h2zm-2 19h10v1H32z"/>
</svg>
