<svg xmlns="http://www.w3.org/2000/svg" xmlns:xlink="http://www.w3.org/1999/xlink" width="64" height="64" version="1.1">
 <defs>
  <linearGradient id="linearGradient4172-9">
   <stop style="stop-color:#00c9b6"/>
   <stop style="stop-color:#00fce4" offset="1"/>
  </linearGradient>
  <linearGradient id="linearGradient4178-9" x2="0" y1="541.798" y2="499.784" gradientTransform="matrix(1 0 0 0.99967455 0 0.17645)" gradientUnits="userSpaceOnUse" xlink:href="#linearGradient4172-9"/>
 </defs>
 <g transform="matrix(1 0 0 1 -384.57143 -483.798)">
  <g transform="matrix(1 0 0 1 0 0.000005)">
   <path style="fill:#009183" d="m 388.57143,489.79812 0,5 0,22 c 0,0.55373 0.446,1 1,1 l 54,0 c 0.55399,0 1,-0.44627 1,-1 l 0,-21.99023 c 0,-0.003 -0.002,-0.006 -0.002,-0.01 l 0.002,0 0,-1 -28,0 -4,-4 -24,0 z"/>
   <path style="fill:url(#linearGradient4178-9)" d="m 410.57143,499.79812 -4,4 -19,0 0,1 0.002,0 c -5e-5,0.004 -0.002,0.008 -0.002,0.0117 l 0,35.98828 0,1 1,0 56,0 1,0 0,-1 0,-35.98828 0,-0.0117 0,-5 z"/>
   <path style="fill:#ffffff;fill-opacity:0.235294;fill-rule:evenodd" d="m 387.57144,503.79812 0,1 19.99999,0 3,-5 -4,4 z"/>
   <path style="fill-opacity:0.235294;fill-rule:evenodd" d="m 388.57143,502.79812 0,1 18,0 4,-4 -6,3 z"/>
   <path style="fill-opacity:0.235294" d="m 387.57143,540.7981 0,1 1,0 56,0 1,0 0,-1 -1,0 -56,0 -1,0 z"/>
   <path style="fill:#ffffff;fill-opacity:0.235294;fill-rule:evenodd" transform="matrix(1 0 0 1 384.57143 483.798)" d="m 28,6 3,5 2,0 27,0 0,-1 -27,0 -1,0 z"/>
  </g>
  <path style="fill:#008276" transform="matrix(1 0 0 1 384.57143 483.798)" d="M 22 27 L 22 47 L 42 47 L 42 27 L 22 27 z M 23 28 L 25 28 L 25 30 L 23 30 L 23 28 z M 39 28 L 41 28 L 41 30 L 39 30 L 39 28 z M 26 29 L 38 29 L 38 36 L 26 36 L 26 29 z M 23 32 L 25 32 L 25 34 L 23 34 L 23 32 z M 39 32 L 41 32 L 41 34 L 39 34 L 39 32 z M 23 36 L 25 36 L 25 38 L 23 38 L 23 36 z M 39 36 L 41 36 L 41 38 L 39 38 L 39 36 z M 26 38 L 38 38 L 38 45 L 26 45 L 26 38 z M 23 40 L 25 40 L 25 42 L 23 42 L 23 40 z M 39 40 L 41 40 L 41 42 L 39 42 L 39 40 z M 23 44 L 25 44 L 25 46 L 23 46 L 23 44 z M 39 44 L 41 44 L 41 46 L 39 46 L 39 44 z"/>
 </g>
</svg>
