<svg xmlns="http://www.w3.org/2000/svg" xmlns:xlink="http://www.w3.org/1999/xlink" width="64" height="64" version="1.1">
 <defs>
  <linearGradient id="linearGradient4178" x2="0" y1="541.798" y2="499.784" gradientTransform="matrix(1 0 0 0.99967455 0 0.17645)" gradientUnits="userSpaceOnUse" xlink:href="#linearGradient4172-5"/>
  <linearGradient id="linearGradient4172-5">
   <stop style="stop-color:#00c9b6"/>
   <stop style="stop-color:#00fce4" offset="1"/>
  </linearGradient>
 </defs>
 <g transform="matrix(1 0 0 1 -384.57143 -483.798)">
  <g transform="matrix(1 0 0 1 0 0.000005)">
   <path style="fill:#009183" d="m 388.57143,489.79812 0,5 0,22 c 0,0.55373 0.446,1 1,1 l 54,0 c 0.55399,0 1,-0.44627 1,-1 l 0,-21.99023 c 0,-0.003 -0.002,-0.006 -0.002,-0.01 l 0.002,0 0,-1 -28,0 -4,-4 -24,0 z"/>
   <path style="fill:url(#linearGradient4178)" d="m 410.57143,499.79812 -4,4 -19,0 0,1 0.002,0 c -5e-5,0.004 -0.002,0.008 -0.002,0.0117 l 0,35.98828 0,1 1,0 56,0 1,0 0,-1 0,-35.98828 0,-0.0117 0,-5 z"/>
   <path style="fill:#ffffff;fill-opacity:0.235294;fill-rule:evenodd" d="m 387.57144,503.79812 0,1 19.99999,0 3,-5 -4,4 z"/>
   <path style="fill-opacity:0.235294;fill-rule:evenodd" d="m 388.57143,502.79812 0,1 18,0 4,-4 -6,3 z"/>
   <path style="fill-opacity:0.235294" d="m 387.57143,540.7981 0,1 1,0 56,0 1,0 0,-1 -1,0 -56,0 -1,0 z"/>
   <path style="fill:#ffffff;fill-opacity:0.235294;fill-rule:evenodd" transform="matrix(1 0 0 1 384.57143 483.798)" d="m 28,6 3,5 2,0 27,0 0,-1 -27,0 -1,0 z"/>
  </g>
  <path style="fill:#008276" transform="matrix(1 0 0 1 384.57143 483.798)" d="M 25 27 L 25 28 L 25 33 L 22 33 L 22 34.5 L 22 43 L 23 43 L 27 43 L 27 45.75 L 27 47 L 37 47 L 37 45.75 L 37 43 L 42 43 L 42 42 L 42 34.5 L 42 33 L 39 33 L 39 28 L 39 27 L 25 27 z M 26 28 L 38 28 L 38 33 L 37 33 L 27 33 L 26 33 L 26 28 z M 27 29 L 27 30 L 37 30 L 37 29 L 27 29 z M 27 31 L 27 32 L 37 32 L 37 31 L 27 31 z M 23 34 L 41 34 L 41 42 L 38 42 L 38 39 L 26 39 L 26 42 L 23 42 L 23 34 z M 36 36 L 36 37 L 39 37 L 39 36 L 36 36 z M 28 43 L 36 43 L 36 46 L 28 46 L 28 43 z"/>
 </g>
</svg>
