<svg xmlns="http://www.w3.org/2000/svg" xmlns:xlink="http://www.w3.org/1999/xlink" width="64" height="64" version="1.1">
 <defs>
  <linearGradient id="linearGradient4178" x2="0" y1="541.798" y2="499.784" gradientTransform="matrix(1 0 0 0.99967455 0 0.176455)" gradientUnits="userSpaceOnUse" xlink:href="#linearGradient4172-5"/>
  <linearGradient id="linearGradient4172-5">
   <stop style="stop-color:#21bbd7"/>
   <stop style="stop-color:#3dc8e1" offset="1"/>
  </linearGradient>
 </defs>
 <g transform="matrix(1 0 0 1 -384.57143 -483.798)">
  <path style="fill:#167b8d" d="m 388.57143,489.79813 0,5 0,22 c 0,0.55372 0.446,1 1,1 l 54,0 c 0.55399,0 1,-0.44628 1,-1 l 0,-21.99023 c 0,-0.003 -0.002,-0.006 -0.002,-0.01 l 0.002,0 0,-1 -28,0 -4,-4 -24,0 z"/>
  <path style="fill:url(#linearGradient4178)" d="m 410.57143,499.79813 -4,4 -19,0 0,1 0.002,0 c -5e-5,0.004 -0.002,0.008 -0.002,0.0117 l 0,35.98828 0,1 1,0 56,0 1,0 0,-1 0,-35.98828 0,-0.0117 0,-5 z"/>
  <path style="fill:#ffffff;fill-opacity:0.235294;fill-rule:evenodd" d="m 387.57144,503.79813 0,1 19.99999,0 3,-5 -4,4 z"/>
  <path style="fill-opacity:0.235294;fill-rule:evenodd" d="m 388.57143,502.79813 0,1 18,0 4,-4 -6,3 z"/>
  <path style="fill-opacity:0.235294" d="m 387.57143,540.79811 0,1 1,0 56,0 1,0 0,-1 -1,0 -56,0 -1,0 z"/>
  <path style="fill:#ffffff;fill-opacity:0.235294;fill-rule:evenodd" d="m 412.57143,489.79801 3,5 2,0 27,0 0,-1 -27,0 -1,0 z"/>
 </g>
</svg>
