<svg xmlns="http://www.w3.org/2000/svg" xmlns:xlink="http://www.w3.org/1999/xlink" version="1.1" viewBox="0 0 64 64">
 <defs>
  <radialGradient id="l" cx="20.571" cy="8.5" r="4" gradientTransform="matrix(7.4835576,-6.814988e-8,5.4400368e-8,1.5,-121.89485,3.2500015)" gradientUnits="userSpaceOnUse">
   <stop offset="0" stop-color="#4f575f" stop-opacity=".251"/>
   <stop offset="1" stop-color="#8a939a"/>
  </radialGradient>
  <linearGradient id="k" x1="390.571" x2="410.571" y1="521.798" y2="545.798" gradientTransform="matrix(2,0,0,1.8333333,-769.142,-942.62968)" gradientUnits="userSpaceOnUse">
   <stop offset="0" stop-color="#bdc3c7"/>
   <stop offset="1" stop-color="#8a9696"/>
  </linearGradient>
  <radialGradient id="radialGradient913" cx="16" cy="8.5" r="4" gradientTransform="matrix(3.5,0,0,3,-24,-13.5)" gradientUnits="userSpaceOnUse" xlink:href="#b"/>
  <linearGradient id="linearGradient916" x1="395.571" x2="395.571" y1="520.798" y2="516.798" gradientTransform="matrix(2,0,0,2,-769.142,-1029.596)" gradientUnits="userSpaceOnUse" xlink:href="#e"/>
 </defs>
 <linearGradient id="a">
  <stop offset="0" stop-color="#4f575f" stop-opacity=".4"/>
  <stop offset=".5" stop-color="#4f575f" stop-opacity=".6"/>
  <stop offset="1" stop-color="#4f575f" stop-opacity=".4"/>
 </linearGradient>
 <radialGradient id="b" cx="16" cy="8.5" r="4" gradientTransform="matrix(3.5,0,0,3,-24,-13.5)" gradientUnits="userSpaceOnUse">
  <stop offset="0" stop-color="#4f575f" stop-opacity=".25"/>
  <stop offset="1" stop-color="#9da5ab"/>
 </radialGradient>
 <linearGradient id="c" x1="412.571" x2="412.571" y1="522.798" y2="520.798" gradientTransform="matrix(2,0,0,2,-769.142,-1029.596)" gradientUnits="userSpaceOnUse">
  <stop offset="0" stop-color="#9da5ab"/>
  <stop offset="1" stop-color="#bdc3c7"/>
 </linearGradient>
 <linearGradient id="e" x1="395.571" x2="395.571" y1="520.798" y2="516.798" gradientTransform="matrix(2,0,0,2,-769.142,-1029.596)" gradientUnits="userSpaceOnUse">
  <stop offset="0" stop-color="#afb0b3"/>
  <stop offset="1" stop-color="#bdc3c7"/>
 </linearGradient>
 <linearGradient id="f" x1="390.571" x2="406.571" y1="521.798" y2="537.798" gradientTransform="matrix(2,0,0,1.9090909,-769.142,-980.1598)" gradientUnits="userSpaceOnUse">
  <stop offset="0" stop-color="#292c2f"/>
  <stop offset="1" stop-opacity="0"/>
 </linearGradient>
 <linearGradient id="h" x1="391.571" x2="394.571" y1="534.798" y2="534.798" gradientTransform="matrix(1.33334,0,0,1.7999999,-508.096,-926.63626)" gradientUnits="userSpaceOnUse" xlink:href="#a"/>
 <linearGradient id="i" x1="391.571" x2="394.571" y1="534.798" y2="534.798" gradientTransform="matrix(1.33334,0,0,1.8,-486.096,-926.63634)" gradientUnits="userSpaceOnUse" xlink:href="#a"/>
 <linearGradient id="j" x1="391.571" x2="394.571" y1="534.798" y2="534.798" gradientTransform="matrix(1.33334,0,0,1.8,-476.094,-926.63634)" gradientUnits="userSpaceOnUse" xlink:href="#a"/>
 <path fill="url(#k)" d="M 12,14 V 56.166668 C 12,57.182332 12.892,58 14,58 h 36 c 1.108,0 2,-0.817668 2,-1.833332 V 14 Z"/>
 <path style="fill:url(#c)" d="m 10,12 c -1.108,0 -2,0.892 -2,2 v 2 h 48 v -2 c 0,-1.108 -0.892,-2 -2,-2 z"/>
 <path style="fill:url(#linearGradient916)" d="m 24,6 c -1.108,0 -2,0.892 -2,2 v 4 h 4 v -1.5 c -6.1e-4,-0.263392 0.203217,-0.48209 0.466,-0.5 h 11.07 c 0.261993,0.01891 0.464682,0.237327 0.464,0.5 V 12 h 4 V 8 C 42,6.892 41.108,6 40,6 Z"/>
 <path style="fill:url(#radialGradient913)" d="m 26,9 c -0.554,0 -1,0.446 -1,1 v 2 h 1 v -1.5 c -6.1e-4,-0.263392 0.203217,-0.48209 0.466,-0.5 h 11.07 c 0.261993,0.01891 0.464682,0.237327 0.464,0.5 V 12 h 1 V 10 C 39,9.446 38.554,9 38,9 Z"/>
 <path style="fill:url(#g)" d="m 26.00002,18 c 1.108,0 2,0.8028 2,1.8 v 32.4 c 0,0.9972 -0.892,1.8 -2,1.8 -1.108,0 -2,-0.8028 -2,-1.8 V 19.8 c 0,-0.9972 0.892,-1.8 2,-1.8 z"/>
 <path style="fill:url(#h)" d="m 16.00002,18 c 1.108,0 2,0.8028 2,1.8 v 32.4 c 0,0.9972 -0.892,1.8 -2,1.8 -1.108,0 -2,-0.8028 -2,-1.8 V 19.8 c 0,-0.9972 0.892,-1.8 2,-1.8 z"/>
 <path style="fill:url(#i)" d="m 38.00002,18 c 1.108,0 2,0.8028 2,1.8 v 32.4 c 0,0.9972 -0.892,1.8 -2,1.8 -1.108,0 -2,-0.8028 -2,-1.8 V 19.8 c 0,-0.9972 0.892,-1.8 2,-1.8 z"/>
 <path style="fill:url(#j)" d="m 48.00002,18 c 1.108,0 2,0.8028 2,1.8 v 32.4 c 0,0.9972 -0.892,1.8 -2,1.8 -1.108,0 -2,-0.8028 -2,-1.8 V 19.8 c 0,-0.9972 0.892,-1.8 2,-1.8 z"/>
 <path fill="url(#f)" opacity=".2" d="m12 16v3.818182l40 38.181818v-42z"/>
 <path style="fill:url(#l)" d="M 8,16 H 56 V 15 H 8.105236 Z"/>
 <path opacity=".2" d="m12 55.166016v1c0 1.015664 0.892 1.833984 2 1.833984h36c1.108 0 2-0.81832 2-1.833984v-1c0 1.015664-0.892 1.833984-2 1.833984h-36c-1.108 0-2-0.81832-2-1.833984z"/>
</svg>
